<?xml version="1.0" encoding="UTF-8" standalone="no"?>
<!DOCTYPE svg PUBLIC "-//W3C//DTD SVG 1.1//EN"
 "http://www.w3.org/Graphics/SVG/1.1/DTD/svg11.dtd">
<!-- Generated by graphviz version 14.1.2 (20260126.1125)
 -->
<!-- Pages: 1 -->
<svg width="1356pt" height="647pt"
 viewBox="0.00 0.00 1356.00 647.00" xmlns="http://www.w3.org/2000/svg" xmlns:xlink="http://www.w3.org/1999/xlink">
<g id="graph0" class="graph" transform="scale(1 1) rotate(0) translate(4 642.7)">
<polygon fill="white" stroke="none" points="-4,4 -4,-642.7 1351.84,-642.7 1351.84,4 -4,4"/>
<text xml:space="preserve" text-anchor="middle" x="673.92" y="-621.4" font-family="Helvetica,sans-Serif" font-size="14.00" fill="#1a1a1a">OLSPanelFE decision tree (alpha=0.05)</text>
<!-- n0 -->
<g id="node1" class="node">
<title>n0</title>
<ellipse fill="#ffd966" stroke="#b58900" stroke-width="2" cx="966.92" cy="-586.21" rx="66.19" ry="27.24"/>
<text xml:space="preserve" text-anchor="middle" x="966.92" y="-589.26" font-family="Helvetica,sans-Serif" font-size="11.00" fill="#1a1a1a">Panel&#45;LM&#45;Lag</text>
<text xml:space="preserve" text-anchor="middle" x="966.92" y="-575.76" font-family="Helvetica,sans-Serif" font-size="11.00" fill="#1a1a1a">p=0.000</text>
</g>
<!-- n1 -->
<g id="node2" class="node">
<title>n1</title>
<ellipse fill="#ffd966" stroke="#b58900" stroke-width="2" cx="879.92" cy="-470.99" rx="71.49" ry="27.24"/>
<text xml:space="preserve" text-anchor="middle" x="879.92" y="-474.04" font-family="Helvetica,sans-Serif" font-size="11.00" fill="#1a1a1a">Panel&#45;LM&#45;Error</text>
<text xml:space="preserve" text-anchor="middle" x="879.92" y="-460.54" font-family="Helvetica,sans-Serif" font-size="11.00" fill="#1a1a1a">p=0.000</text>
</g>
<!-- n0&#45;&gt;n1 -->
<g id="edge1" class="edge">
<title>n0&#45;&gt;n1</title>
<path fill="none" stroke="#4c72b0" stroke-width="2.5" d="M947.18,-559.52C935.47,-544.28 920.45,-524.74 907.58,-507.98"/>
<polygon fill="#4c72b0" stroke="#4c72b0" stroke-width="2.5" points="901.74,-500.39 911.4,-505.57 903.53,-501.48 908.43,-507.86 907.83,-508.32 907.24,-508.77 902.34,-502.39 904.27,-511.06 901.74,-500.39"/>
<text xml:space="preserve" text-anchor="middle" x="933.53" y="-525.48" font-family="Times,serif" font-size="10.00" fill="#1a1a1a">sig</text>
</g>
<!-- n7 -->
<g id="node15" class="node">
<title>n7</title>
<ellipse fill="#e8f4fd" stroke="#4c72b0" stroke-width="1.2" cx="1053.92" cy="-470.99" rx="70.31" ry="18"/>
<text xml:space="preserve" text-anchor="middle" x="1053.92" y="-467.29" font-family="Helvetica,sans-Serif" font-size="11.00" fill="#1a1a1a">Panel&#45;LM&#45;Error</text>
</g>
<!-- n0&#45;&gt;n7 -->
<g id="edge14" class="edge">
<title>n0&#45;&gt;n7</title>
<path fill="none" stroke="#ced4da" stroke-dasharray="5,2" d="M986.66,-559.52C1000.75,-541.19 1019.63,-516.61 1033.81,-498.17"/>
<polygon fill="#ced4da" stroke="#ced4da" points="1036.5,-500.41 1039.82,-490.35 1030.95,-496.14 1036.5,-500.41"/>
<text xml:space="preserve" text-anchor="middle" x="1030.28" y="-525.48" font-family="Times,serif" font-size="10.00" fill="#adb5bd">not sig</text>
</g>
<!-- n2 -->
<g id="node3" class="node">
<title>n2</title>
<ellipse fill="#ffd966" stroke="#b58900" stroke-width="2" cx="749.92" cy="-355.76" rx="95.88" ry="27.24"/>
<text xml:space="preserve" text-anchor="middle" x="749.92" y="-358.81" font-family="Helvetica,sans-Serif" font-size="11.00" fill="#1a1a1a">Panel&#45;Robust&#45;LM&#45;Lag</text>
<text xml:space="preserve" text-anchor="middle" x="749.92" y="-345.31" font-family="Helvetica,sans-Serif" font-size="11.00" fill="#1a1a1a">p=0.000</text>
</g>
<!-- n1&#45;&gt;n2 -->
<g id="edge2" class="edge">
<title>n1&#45;&gt;n2</title>
<path fill="none" stroke="#4c72b0" stroke-width="2.5" d="M851.39,-445.14C833.1,-429.21 809.12,-408.33 789.07,-390.86"/>
<polygon fill="#4c72b0" stroke="#4c72b0" stroke-width="2.5" points="781.58,-384.34 792.08,-387.51 783.55,-385.06 789.61,-390.34 789.12,-390.91 788.63,-391.47 782.56,-386.19 786.17,-394.3 781.58,-384.34"/>
<text xml:space="preserve" text-anchor="middle" x="826.32" y="-410.25" font-family="Times,serif" font-size="10.00" fill="#1a1a1a">sig</text>
</g>
<!-- leaf6 -->
<g id="node14" class="node">
<title>leaf6</title>
<path fill="#f8f9fa" stroke="#adb5bd" d="M951.97,-373.76C951.97,-373.76 889.87,-373.76 889.87,-373.76 883.87,-373.76 877.87,-367.76 877.87,-361.76 877.87,-361.76 877.87,-349.76 877.87,-349.76 877.87,-343.76 883.87,-337.76 889.87,-337.76 889.87,-337.76 951.97,-337.76 951.97,-337.76 957.97,-337.76 963.97,-343.76 963.97,-349.76 963.97,-349.76 963.97,-361.76 963.97,-361.76 963.97,-367.76 957.97,-373.76 951.97,-373.76"/>
<text xml:space="preserve" text-anchor="middle" x="920.92" y="-352.06" font-family="Helvetica,sans-Serif" font-size="11.00" fill="#6c757d">SARPanelFE</text>
</g>
<!-- n1&#45;&gt;leaf6 -->
<g id="edge13" class="edge">
<title>n1&#45;&gt;leaf6</title>
<path fill="none" stroke="#ced4da" stroke-dasharray="5,2" d="M889.64,-443.16C896,-425.58 904.3,-402.66 910.75,-384.85"/>
<polygon fill="#ced4da" stroke="#ced4da" points="913.96,-386.26 914.07,-375.67 907.38,-383.88 913.96,-386.26"/>
<text xml:space="preserve" text-anchor="middle" x="918.9" y="-410.25" font-family="Times,serif" font-size="10.00" fill="#adb5bd">not sig</text>
</g>
<!-- n3 -->
<g id="node4" class="node">
<title>n3</title>
<ellipse fill="#ffd966" stroke="#b58900" stroke-width="2" cx="633.92" cy="-240.54" rx="101.19" ry="27.24"/>
<text xml:space="preserve" text-anchor="middle" x="633.92" y="-243.59" font-family="Helvetica,sans-Serif" font-size="11.00" fill="#1a1a1a">Panel&#45;Robust&#45;LM&#45;Error</text>
<text xml:space="preserve" text-anchor="middle" x="633.92" y="-230.09" font-family="Helvetica,sans-Serif" font-size="11.00" fill="#1a1a1a">p=0.760</text>
</g>
<!-- n2&#45;&gt;n3 -->
<g id="edge3" class="edge">
<title>n2&#45;&gt;n3</title>
<path fill="none" stroke="#4c72b0" stroke-width="2.5" d="M723.31,-328.79C707.39,-313.25 686.96,-293.31 669.66,-276.42"/>
<polygon fill="#4c72b0" stroke="#4c72b0" stroke-width="2.5" points="662.59,-269.52 672.89,-273.29 664.51,-270.35 670.27,-275.97 669.74,-276.51 669.22,-277.04 663.46,-271.42 666.6,-279.73 662.59,-269.52"/>
<text xml:space="preserve" text-anchor="middle" x="702.9" y="-295.03" font-family="Times,serif" font-size="10.00" fill="#1a1a1a">sig</text>
</g>
<!-- n5 -->
<g id="node9" class="node">
<title>n5</title>
<ellipse fill="#e8f4fd" stroke="#4c72b0" stroke-width="1.2" cx="866.92" cy="-240.54" rx="99.51" ry="18"/>
<text xml:space="preserve" text-anchor="middle" x="866.92" y="-236.84" font-family="Helvetica,sans-Serif" font-size="11.00" fill="#1a1a1a">Panel&#45;Robust&#45;LM&#45;Error</text>
</g>
<!-- n2&#45;&gt;n5 -->
<g id="edge8" class="edge">
<title>n2&#45;&gt;n5</title>
<path fill="none" stroke="#ced4da" stroke-dasharray="5,2" d="M776.76,-328.79C796.07,-310.1 821.96,-285.05 841.04,-266.58"/>
<polygon fill="#ced4da" stroke="#ced4da" points="843.44,-269.13 848.19,-259.66 838.57,-264.1 843.44,-269.13"/>
<text xml:space="preserve" text-anchor="middle" x="829.18" y="-295.03" font-family="Times,serif" font-size="10.00" fill="#adb5bd">not sig</text>
</g>
<!-- n4 -->
<g id="node5" class="node">
<title>n4</title>
<path fill="#fff3cd" stroke="#dd8452" stroke-width="1.2" d="M295.97,-151.47C295.97,-151.47 11.95,-125.73 11.95,-125.73 5.98,-125.19 5.98,-124.11 11.95,-123.57 11.95,-123.57 295.97,-97.83 295.97,-97.83 301.94,-97.29 313.9,-97.29 319.87,-97.83 319.87,-97.83 603.89,-123.57 603.89,-123.57 609.86,-124.11 609.86,-125.19 603.89,-125.73 603.89,-125.73 319.87,-151.47 319.87,-151.47 313.9,-152.01 301.94,-152.01 295.97,-151.47"/>
<text xml:space="preserve" text-anchor="middle" x="307.92" y="-120.95" font-family="Helvetica,sans-Serif" font-size="11.00" fill="#1a1a1a">Panel&#45;Robust&#45;LM&#45;Lag p &lt;= Panel&#45;Robust&#45;LM&#45;Error p</text>
</g>
<!-- n3&#45;&gt;n4 -->
<g id="edge4" class="edge">
<title>n3&#45;&gt;n4</title>
<path fill="none" stroke="#ced4da" stroke-dasharray="5,2" d="M572.6,-218.12C518.28,-199.14 438.87,-171.4 381.21,-151.26"/>
<polygon fill="#ced4da" stroke="#ced4da" points="382.37,-147.95 371.78,-147.96 380.06,-154.56 382.37,-147.95"/>
<text xml:space="preserve" text-anchor="middle" x="488.19" y="-179.8" font-family="Times,serif" font-size="10.00" fill="#adb5bd">sig</text>
</g>
<!-- leaf2 -->
<g id="node8" class="node">
<title>leaf2</title>
<path fill="#ffd966" stroke="#b58900" stroke-width="2" d="M721.97,-142.65C721.97,-142.65 659.87,-142.65 659.87,-142.65 653.87,-142.65 647.87,-136.65 647.87,-130.65 647.87,-130.65 647.87,-118.65 647.87,-118.65 647.87,-112.65 653.87,-106.65 659.87,-106.65 659.87,-106.65 721.97,-106.65 721.97,-106.65 727.97,-106.65 733.97,-112.65 733.97,-118.65 733.97,-118.65 733.97,-130.65 733.97,-130.65 733.97,-136.65 727.97,-142.65 721.97,-142.65"/>
<text xml:space="preserve" text-anchor="middle" x="690.92" y="-120.95" font-family="Helvetica,sans-Serif" font-size="11.00" fill="#1a1a1a">SARPanelFE</text>
</g>
<!-- n3&#45;&gt;leaf2 -->
<g id="edge7" class="edge">
<title>n3&#45;&gt;leaf2</title>
<path fill="none" stroke="#4c72b0" stroke-width="2.5" d="M647.43,-212.55C656.09,-195.23 667.35,-172.75 676.23,-154.99"/>
<polygon fill="#4c72b0" stroke="#4c72b0" stroke-width="2.5" points="680.59,-146.3 680.13,-157.25 680.38,-148.38 676.78,-155.58 676.11,-155.24 675.44,-154.9 679.04,-147.71 672.09,-153.23 680.59,-146.3"/>
<text xml:space="preserve" text-anchor="middle" x="681.38" y="-179.8" font-family="Times,serif" font-size="10.00" fill="#1a1a1a">not sig</text>
</g>
<!-- leaf0 -->
<g id="node6" class="node">
<title>leaf0</title>
<path fill="#f8f9fa" stroke="#adb5bd" d="M279.97,-36C279.97,-36 217.87,-36 217.87,-36 211.87,-36 205.87,-30 205.87,-24 205.87,-24 205.87,-12 205.87,-12 205.87,-6 211.87,0 217.87,0 217.87,0 279.97,0 279.97,0 285.97,0 291.97,-6 291.97,-12 291.97,-12 291.97,-24 291.97,-24 291.97,-30 285.97,-36 279.97,-36"/>
<text xml:space="preserve" text-anchor="middle" x="248.92" y="-14.3" font-family="Helvetica,sans-Serif" font-size="11.00" fill="#6c757d">SARPanelFE</text>
</g>
<!-- n4&#45;&gt;leaf0 -->
<g id="edge5" class="edge">
<title>n4&#45;&gt;leaf0</title>
<path fill="none" stroke="#ced4da" stroke-dasharray="5,2" d="M293.18,-97.51C284.34,-81.82 273.1,-61.89 264.16,-46.04"/>
<polygon fill="#ced4da" stroke="#ced4da" points="267.38,-44.61 259.42,-37.62 261.28,-48.05 267.38,-44.61"/>
<text xml:space="preserve" text-anchor="middle" x="288.92" y="-63.25" font-family="Times,serif" font-size="10.00" fill="#adb5bd">true</text>
</g>
<!-- leaf1 -->
<g id="node7" class="node">
<title>leaf1</title>
<path fill="#f8f9fa" stroke="#adb5bd" d="M398.35,-36C398.35,-36 335.5,-36 335.5,-36 329.5,-36 323.5,-30 323.5,-24 323.5,-24 323.5,-12 323.5,-12 323.5,-6 329.5,0 335.5,0 335.5,0 398.35,0 398.35,0 404.35,0 410.35,-6 410.35,-12 410.35,-12 410.35,-24 410.35,-24 410.35,-30 404.35,-36 398.35,-36"/>
<text xml:space="preserve" text-anchor="middle" x="366.92" y="-14.3" font-family="Helvetica,sans-Serif" font-size="11.00" fill="#6c757d">SEMPanelFE</text>
</g>
<!-- n4&#45;&gt;leaf1 -->
<g id="edge6" class="edge">
<title>n4&#45;&gt;leaf1</title>
<path fill="none" stroke="#ced4da" stroke-dasharray="5,2" d="M322.66,-97.51C331.5,-81.82 342.74,-61.89 351.68,-46.04"/>
<polygon fill="#ced4da" stroke="#ced4da" points="354.56,-48.05 356.42,-37.62 348.46,-44.61 354.56,-48.05"/>
<text xml:space="preserve" text-anchor="middle" x="354.7" y="-63.25" font-family="Times,serif" font-size="10.00" fill="#adb5bd">false</text>
</g>
<!-- leaf3 -->
<g id="node10" class="node">
<title>leaf3</title>
<path fill="#f8f9fa" stroke="#adb5bd" d="M856.35,-142.65C856.35,-142.65 793.5,-142.65 793.5,-142.65 787.5,-142.65 781.5,-136.65 781.5,-130.65 781.5,-130.65 781.5,-118.65 781.5,-118.65 781.5,-112.65 787.5,-106.65 793.5,-106.65 793.5,-106.65 856.35,-106.65 856.35,-106.65 862.35,-106.65 868.35,-112.65 868.35,-118.65 868.35,-118.65 868.35,-130.65 868.35,-130.65 868.35,-136.65 862.35,-142.65 856.35,-142.65"/>
<text xml:space="preserve" text-anchor="middle" x="824.92" y="-120.95" font-family="Helvetica,sans-Serif" font-size="11.00" fill="#6c757d">SEMPanelFE</text>
</g>
<!-- n5&#45;&gt;leaf3 -->
<g id="edge9" class="edge">
<title>n5&#45;&gt;leaf3</title>
<path fill="none" stroke="#ced4da" stroke-dasharray="5,2" d="M860.54,-222.24C853.85,-204.1 843.23,-175.29 835.32,-153.85"/>
<polygon fill="#ced4da" stroke="#ced4da" points="838.63,-152.7 831.88,-144.53 832.06,-155.12 838.63,-152.7"/>
<text xml:space="preserve" text-anchor="middle" x="854.68" y="-179.8" font-family="Times,serif" font-size="10.00" fill="#adb5bd">sig</text>
</g>
<!-- n6 -->
<g id="node11" class="node">
<title>n6</title>
<path fill="#fff3cd" stroke="#dd8452" stroke-width="1.2" d="M1112.01,-151.07C1112.01,-151.07 911.91,-126.13 911.91,-126.13 905.95,-125.39 905.95,-123.91 911.91,-123.17 911.91,-123.17 1112.01,-98.23 1112.01,-98.23 1117.97,-97.49 1129.87,-97.49 1135.83,-98.23 1135.83,-98.23 1335.93,-123.17 1335.93,-123.17 1341.89,-123.91 1341.89,-125.39 1335.93,-126.13 1335.93,-126.13 1135.83,-151.07 1135.83,-151.07 1129.87,-151.81 1117.97,-151.81 1112.01,-151.07"/>
<text xml:space="preserve" text-anchor="middle" x="1123.92" y="-120.95" font-family="Helvetica,sans-Serif" font-size="11.00" fill="#1a1a1a">Panel&#45;LM&#45;Lag p &lt;= Panel&#45;LM&#45;Error p</text>
</g>
<!-- n5&#45;&gt;n6 -->
<g id="edge10" class="edge">
<title>n5&#45;&gt;n6</title>
<path fill="none" stroke="#ced4da" stroke-dasharray="5,2" d="M903.47,-223.34C945.65,-204.65 1015.58,-173.66 1065.36,-151.6"/>
<polygon fill="#ced4da" stroke="#ced4da" points="1066.56,-154.9 1074.28,-147.65 1063.72,-148.5 1066.56,-154.9"/>
<text xml:space="preserve" text-anchor="middle" x="1020.38" y="-179.8" font-family="Times,serif" font-size="10.00" fill="#adb5bd">not sig</text>
</g>
<!-- leaf4 -->
<g id="node12" class="node">
<title>leaf4</title>
<path fill="#f8f9fa" stroke="#adb5bd" d="M1095.97,-36C1095.97,-36 1033.87,-36 1033.87,-36 1027.87,-36 1021.87,-30 1021.87,-24 1021.87,-24 1021.87,-12 1021.87,-12 1021.87,-6 1027.87,0 1033.87,0 1033.87,0 1095.97,0 1095.97,0 1101.97,0 1107.97,-6 1107.97,-12 1107.97,-12 1107.97,-24 1107.97,-24 1107.97,-30 1101.97,-36 1095.97,-36"/>
<text xml:space="preserve" text-anchor="middle" x="1064.92" y="-14.3" font-family="Helvetica,sans-Serif" font-size="11.00" fill="#6c757d">SARPanelFE</text>
</g>
<!-- n6&#45;&gt;leaf4 -->
<g id="edge11" class="edge">
<title>n6&#45;&gt;leaf4</title>
<path fill="none" stroke="#ced4da" stroke-dasharray="5,2" d="M1109.49,-98.05C1100.64,-82.36 1089.33,-62.3 1080.32,-46.31"/>
<polygon fill="#ced4da" stroke="#ced4da" points="1083.48,-44.79 1075.52,-37.8 1077.38,-48.23 1083.48,-44.79"/>
<text xml:space="preserve" text-anchor="middle" x="1104.92" y="-63.25" font-family="Times,serif" font-size="10.00" fill="#adb5bd">true</text>
</g>
<!-- leaf5 -->
<g id="node13" class="node">
<title>leaf5</title>
<path fill="#f8f9fa" stroke="#adb5bd" d="M1214.35,-36C1214.35,-36 1151.5,-36 1151.5,-36 1145.5,-36 1139.5,-30 1139.5,-24 1139.5,-24 1139.5,-12 1139.5,-12 1139.5,-6 1145.5,0 1151.5,0 1151.5,0 1214.35,0 1214.35,0 1220.35,0 1226.35,-6 1226.35,-12 1226.35,-12 1226.35,-24 1226.35,-24 1226.35,-30 1220.35,-36 1214.35,-36"/>
<text xml:space="preserve" text-anchor="middle" x="1182.92" y="-14.3" font-family="Helvetica,sans-Serif" font-size="11.00" fill="#6c757d">SEMPanelFE</text>
</g>
<!-- n6&#45;&gt;leaf5 -->
<g id="edge12" class="edge">
<title>n6&#45;&gt;leaf5</title>
<path fill="none" stroke="#ced4da" stroke-dasharray="5,2" d="M1138.35,-98.05C1147.2,-82.36 1158.51,-62.3 1167.52,-46.31"/>
<polygon fill="#ced4da" stroke="#ced4da" points="1170.46,-48.23 1172.32,-37.8 1164.36,-44.79 1170.46,-48.23"/>
<text xml:space="preserve" text-anchor="middle" x="1170.7" y="-63.25" font-family="Times,serif" font-size="10.00" fill="#adb5bd">false</text>
</g>
<!-- leaf7 -->
<g id="node16" class="node">
<title>leaf7</title>
<path fill="#f8f9fa" stroke="#adb5bd" d="M1077.35,-373.76C1077.35,-373.76 1014.5,-373.76 1014.5,-373.76 1008.5,-373.76 1002.5,-367.76 1002.5,-361.76 1002.5,-361.76 1002.5,-349.76 1002.5,-349.76 1002.5,-343.76 1008.5,-337.76 1014.5,-337.76 1014.5,-337.76 1077.35,-337.76 1077.35,-337.76 1083.35,-337.76 1089.35,-343.76 1089.35,-349.76 1089.35,-349.76 1089.35,-361.76 1089.35,-361.76 1089.35,-367.76 1083.35,-373.76 1077.35,-373.76"/>
<text xml:space="preserve" text-anchor="middle" x="1045.92" y="-352.06" font-family="Helvetica,sans-Serif" font-size="11.00" fill="#6c757d">SEMPanelFE</text>
</g>
<!-- n7&#45;&gt;leaf7 -->
<g id="edge15" class="edge">
<title>n7&#45;&gt;leaf7</title>
<path fill="none" stroke="#ced4da" stroke-dasharray="5,2" d="M1052.7,-452.79C1051.44,-434.92 1049.44,-406.64 1047.94,-385.39"/>
<polygon fill="#ced4da" stroke="#ced4da" points="1051.45,-385.36 1047.25,-375.63 1044.47,-385.85 1051.45,-385.36"/>
<text xml:space="preserve" text-anchor="middle" x="1057.66" y="-410.25" font-family="Times,serif" font-size="10.00" fill="#adb5bd">sig</text>
</g>
<!-- leaf8 -->
<g id="node17" class="node">
<title>leaf8</title>
<path fill="#f8f9fa" stroke="#adb5bd" d="M1194.6,-373.76C1194.6,-373.76 1133.25,-373.76 1133.25,-373.76 1127.25,-373.76 1121.25,-367.76 1121.25,-361.76 1121.25,-361.76 1121.25,-349.76 1121.25,-349.76 1121.25,-343.76 1127.25,-337.76 1133.25,-337.76 1133.25,-337.76 1194.6,-337.76 1194.6,-337.76 1200.6,-337.76 1206.6,-343.76 1206.6,-349.76 1206.6,-349.76 1206.6,-361.76 1206.6,-361.76 1206.6,-367.76 1200.6,-373.76 1194.6,-373.76"/>
<text xml:space="preserve" text-anchor="middle" x="1163.92" y="-352.06" font-family="Helvetica,sans-Serif" font-size="11.00" fill="#6c757d">OLSPanelFE</text>
</g>
<!-- n7&#45;&gt;leaf8 -->
<g id="edge16" class="edge">
<title>n7&#45;&gt;leaf8</title>
<path fill="none" stroke="#ced4da" stroke-dasharray="5,2" d="M1070.15,-453.28C1088.41,-434.49 1118.25,-403.77 1139.36,-382.04"/>
<polygon fill="#ced4da" stroke="#ced4da" points="1141.75,-384.61 1146.21,-375 1136.73,-379.73 1141.75,-384.61"/>
<text xml:space="preserve" text-anchor="middle" x="1129.47" y="-410.25" font-family="Times,serif" font-size="10.00" fill="#adb5bd">not sig</text>
</g>
</g>
</svg>